M48
; DRILL file {KiCad 7.0.1} date Thu Apr 13 16:06:35 2023
; FORMAT={-:-/ absolute / inch / decimal}
; #@! TF.CreationDate,2023-04-13T16:06:35-04:00
; #@! TF.GenerationSoftware,Kicad,Pcbnew,7.0.1
; #@! TF.FileFunction,Plated,1,2,PTH
FMAT,2
INCH
; #@! TA.AperFunction,Plated,PTH,ComponentDrill
T1C0.0079
; #@! TA.AperFunction,Plated,PTH,ViaDrill
T2C0.0157
; #@! TA.AperFunction,Plated,PTH,ComponentDrill
T3C0.0315
; #@! TA.AperFunction,Plated,PTH,ComponentDrill
T4C0.0394
; #@! TA.AperFunction,Plated,PTH,ComponentDrill
T5C0.0472
; #@! TA.AperFunction,Plated,PTH,ComponentDrill
T6C0.0512
%
G90
G05
T1
X6.4598Y-4.2854
X6.4598Y-4.3406
X6.4873Y-4.2579
X6.4873Y-4.313
X6.4873Y-4.3681
X6.5149Y-4.2854
X6.5149Y-4.3406
X6.5424Y-4.2579
X6.5424Y-4.313
X6.5424Y-4.3681
X6.57Y-4.2854
X6.57Y-4.3406
T2
X6.0163Y-3.51
X6.045Y-3.365
X6.11Y-3.76
X6.18Y-3.48
X6.195Y-3.66
X6.21Y-4.485
X6.23Y-3.26
X6.24Y-4.65
X6.255Y-4.255
X6.26Y-3.99
X6.28Y-3.535
X6.29Y-4.75
X6.295Y-3.61
X6.31Y-4.36
X6.38Y-4.315
X6.41Y-4.53
X6.455Y-3.535
X6.455Y-4.67
X6.455Y-4.765
X6.485Y-4.52
X6.525Y-3.99
X6.6073Y-3.99
X6.61Y-4.765
X6.625Y-3.83
X6.63Y-4.12
X6.69Y-4.365
X6.705Y-3.995
X6.795Y-3.535
X6.83Y-4.17
X6.83Y-4.455
X6.85Y-4.665
X6.86Y-3.675
X6.935Y-4.595
X6.945Y-3.92
T3
X6.54Y-2.43
X6.8353Y-2.3158
T4
X5.5718Y-3.1579
X6.0443Y-3.1579
X6.2269Y-3.7642
X6.3804Y-3.75
X6.4316Y-2.6067
X6.4731Y-2.13
X6.4804Y-3.75
X6.5804Y-3.75
X6.6284Y-2.6067
X6.6804Y-3.75
X6.685Y-4.72
X6.785Y-4.72
X6.8331Y-3.7642
X6.8669Y-2.13
T5
X5.6131Y-2.4
X5.81Y-2.4
X6.0069Y-2.4
X6.2037Y-2.4
T6
X5.5718Y-2.6776
X5.81Y-3.2346
X6.0462Y-2.6756
T0
M30
