%TF.GenerationSoftware,KiCad,Pcbnew,7.0.1*%
%TF.CreationDate,2023-04-13T16:06:33-04:00*%
%TF.ProjectId,IoT Lightswitch,496f5420-4c69-4676-9874-737769746368,rev?*%
%TF.SameCoordinates,Original*%
%TF.FileFunction,Copper,L1,Top*%
%TF.FilePolarity,Positive*%
%FSLAX46Y46*%
G04 Gerber Fmt 4.6, Leading zero omitted, Abs format (unit mm)*
G04 Created by KiCad (PCBNEW 7.0.1) date 2023-04-13 16:06:33*
%MOMM*%
%LPD*%
G01*
G04 APERTURE LIST*
G04 Aperture macros list*
%AMRoundRect*
0 Rectangle with rounded corners*
0 $1 Rounding radius*
0 $2 $3 $4 $5 $6 $7 $8 $9 X,Y pos of 4 corners*
0 Add a 4 corners polygon primitive as box body*
4,1,4,$2,$3,$4,$5,$6,$7,$8,$9,$2,$3,0*
0 Add four circle primitives for the rounded corners*
1,1,$1+$1,$2,$3*
1,1,$1+$1,$4,$5*
1,1,$1+$1,$6,$7*
1,1,$1+$1,$8,$9*
0 Add four rect primitives between the rounded corners*
20,1,$1+$1,$2,$3,$4,$5,0*
20,1,$1+$1,$4,$5,$6,$7,0*
20,1,$1+$1,$6,$7,$8,$9,0*
20,1,$1+$1,$8,$9,$2,$3,0*%
G04 Aperture macros list end*
%TA.AperFunction,EtchedComponent*%
%ADD10C,0.381000*%
%TD*%
%TA.AperFunction,SMDPad,CuDef*%
%ADD11R,1.800000X1.100000*%
%TD*%
%TA.AperFunction,ComponentPad*%
%ADD12C,3.000000*%
%TD*%
%TA.AperFunction,SMDPad,CuDef*%
%ADD13RoundRect,0.350000X-0.900000X0.350000X-0.900000X-0.350000X0.900000X-0.350000X0.900000X0.350000X0*%
%TD*%
%TA.AperFunction,SMDPad,CuDef*%
%ADD14RoundRect,0.350000X-0.350000X-0.900000X0.350000X-0.900000X0.350000X0.900000X-0.350000X0.900000X0*%
%TD*%
%TA.AperFunction,SMDPad,CuDef*%
%ADD15RoundRect,0.135000X-0.185000X0.135000X-0.185000X-0.135000X0.185000X-0.135000X0.185000X0.135000X0*%
%TD*%
%TA.AperFunction,SMDPad,CuDef*%
%ADD16RoundRect,0.112500X-0.112500X0.187500X-0.112500X-0.187500X0.112500X-0.187500X0.112500X0.187500X0*%
%TD*%
%TA.AperFunction,SMDPad,CuDef*%
%ADD17RoundRect,0.147500X-0.147500X-0.172500X0.147500X-0.172500X0.147500X0.172500X-0.147500X0.172500X0*%
%TD*%
%TA.AperFunction,ComponentPad*%
%ADD18R,1.700000X1.700000*%
%TD*%
%TA.AperFunction,ComponentPad*%
%ADD19O,1.700000X1.700000*%
%TD*%
%TA.AperFunction,SMDPad,CuDef*%
%ADD20RoundRect,0.135000X0.135000X0.185000X-0.135000X0.185000X-0.135000X-0.185000X0.135000X-0.185000X0*%
%TD*%
%TA.AperFunction,SMDPad,CuDef*%
%ADD21RoundRect,0.140000X0.140000X0.170000X-0.140000X0.170000X-0.140000X-0.170000X0.140000X-0.170000X0*%
%TD*%
%TA.AperFunction,SMDPad,CuDef*%
%ADD22R,0.700000X0.450000*%
%TD*%
%TA.AperFunction,SMDPad,CuDef*%
%ADD23R,0.900000X1.500000*%
%TD*%
%TA.AperFunction,SMDPad,CuDef*%
%ADD24R,1.500000X0.900000*%
%TD*%
%TA.AperFunction,HeatsinkPad*%
%ADD25C,0.600000*%
%TD*%
%TA.AperFunction,SMDPad,CuDef*%
%ADD26R,3.900000X3.900000*%
%TD*%
%TA.AperFunction,SMDPad,CuDef*%
%ADD27RoundRect,0.225000X-0.250000X0.225000X-0.250000X-0.225000X0.250000X-0.225000X0.250000X0.225000X0*%
%TD*%
%TA.AperFunction,ComponentPad*%
%ADD28C,2.500000*%
%TD*%
%TA.AperFunction,ComponentPad*%
%ADD29C,1.800000*%
%TD*%
%TA.AperFunction,ComponentPad*%
%ADD30R,2.000000X2.300000*%
%TD*%
%TA.AperFunction,ComponentPad*%
%ADD31C,2.300000*%
%TD*%
%TA.AperFunction,ComponentPad*%
%ADD32C,2.000000*%
%TD*%
%TA.AperFunction,ViaPad*%
%ADD33C,0.800000*%
%TD*%
%TA.AperFunction,Conductor*%
%ADD34C,0.250000*%
%TD*%
%TA.AperFunction,Conductor*%
%ADD35C,3.500000*%
%TD*%
G04 APERTURE END LIST*
D10*
%TO.C,REF\u002A\u002A*%
X166197280Y-78867000D02*
X170896280Y-71882000D01*
X169997120Y-76273660D02*
X171196000Y-75473560D01*
X169997120Y-76273660D02*
X171297600Y-73472040D01*
X170398440Y-78272640D02*
X170296840Y-77373480D01*
X170398440Y-78272640D02*
X170997880Y-77574140D01*
X170398440Y-78272640D02*
X171597320Y-75173840D01*
X170797220Y-73273920D02*
X169997120Y-76273660D01*
X170896280Y-71882000D02*
X175595280Y-78867000D01*
X171196000Y-75473560D02*
X170398440Y-78272640D01*
X171597320Y-75173840D02*
X170997880Y-75572620D01*
X175595280Y-78867000D02*
X166197280Y-78867000D01*
%TD*%
D11*
%TO.P,BOOT,1,1*%
%TO.N,GND*%
X169493000Y-87939000D03*
X175693000Y-87939000D03*
%TO.P,BOOT,2,2*%
%TO.N,BOOT*%
X169493000Y-91639000D03*
X175693000Y-91639000D03*
%TD*%
D12*
%TO.P,J1,1,Pin_1*%
%TO.N,AC_N*%
X157574000Y-60960000D03*
%TO.P,J1,2,Pin_2*%
%TO.N,AC_NC*%
X152574000Y-60960000D03*
%TO.P,J1,3,Pin_3*%
%TO.N,AC_L*%
X147574000Y-60960000D03*
%TO.P,J1,4,Pin_4*%
%TO.N,AC_NO*%
X142574000Y-60960000D03*
%TD*%
D13*
%TO.P,F1,1*%
%TO.N,AC_L*%
X147574000Y-70294000D03*
%TO.P,F1,2*%
%TO.N,AC_L_FUSED*%
X147574000Y-74994000D03*
%TD*%
D11*
%TO.P,RST,1,1*%
%TO.N,RST*%
X167057000Y-91639000D03*
X160857000Y-91639000D03*
%TO.P,RST,2,2*%
%TO.N,GND*%
X167057000Y-87939000D03*
X160857000Y-87939000D03*
%TD*%
D14*
%TO.P,F3,1*%
%TO.N,AC_L*%
X156527000Y-53848000D03*
%TO.P,F3,2*%
%TO.N,Net-(PS1-AC{slash}L)*%
X161227000Y-53848000D03*
%TD*%
D15*
%TO.P,R2,1*%
%TO.N,Net-(Q1-G)*%
X155194000Y-93470000D03*
%TO.P,R2,2*%
%TO.N,IO5*%
X155194000Y-94490000D03*
%TD*%
D16*
%TO.P,D1,1,K*%
%TO.N,+3V3*%
X153543000Y-86326000D03*
%TO.P,D1,2,A*%
%TO.N,Net-(D1-A)*%
X153543000Y-88426000D03*
%TD*%
D17*
%TO.P,D2,1,K*%
%TO.N,GND*%
X175283000Y-119507000D03*
%TO.P,D2,2,A*%
%TO.N,Net-(D2-A)*%
X176253000Y-119507000D03*
%TD*%
D18*
%TO.P,SW5,1,A*%
%TO.N,+3V3*%
X169799000Y-119888000D03*
D19*
%TO.P,SW5,2,B*%
%TO.N,Net-(SW5-B)*%
X172339000Y-119888000D03*
%TD*%
D18*
%TO.P,V  T  R  G,1,Pin_1*%
%TO.N,+3V3*%
X162062000Y-95250000D03*
D19*
%TO.P,V  T  R  G,2,Pin_2*%
%TO.N,TX*%
X164602000Y-95250000D03*
%TO.P,V  T  R  G,3,Pin_3*%
%TO.N,RX*%
X167142000Y-95250000D03*
%TO.P,V  T  R  G,4,Pin_4*%
%TO.N,GND*%
X169682000Y-95250000D03*
%TD*%
D20*
%TO.P,R4,1*%
%TO.N,Net-(D2-A)*%
X176278000Y-118491000D03*
%TO.P,R4,2*%
%TO.N,IO20*%
X175258000Y-118491000D03*
%TD*%
D21*
%TO.P,C1,1*%
%TO.N,RST*%
X160246000Y-119380000D03*
%TO.P,C1,2*%
%TO.N,GND*%
X159286000Y-119380000D03*
%TD*%
D20*
%TO.P,R3,1*%
%TO.N,Net-(SW5-B)*%
X166499000Y-118364000D03*
%TO.P,R3,2*%
%TO.N,IO7*%
X165479000Y-118364000D03*
%TD*%
D22*
%TO.P,Q1,1,D*%
%TO.N,Net-(D1-A)*%
X155210000Y-90028000D03*
%TO.P,Q1,2,G*%
%TO.N,Net-(Q1-G)*%
X155210000Y-91328000D03*
%TO.P,Q1,3,S*%
%TO.N,GND*%
X157210000Y-90678000D03*
%TD*%
D23*
%TO.P,U1,1,GND*%
%TO.N,GND*%
X157758000Y-116800000D03*
%TO.P,U1,2,VCC*%
%TO.N,+3V3*%
X159028000Y-116800000D03*
%TO.P,U1,3,EN*%
%TO.N,RST*%
X160298000Y-116800000D03*
%TO.P,U1,4,IO4*%
%TO.N,unconnected-(U1-IO4-Pad4)*%
X161568000Y-116800000D03*
%TO.P,U1,5,IO5*%
%TO.N,IO5*%
X162838000Y-116800000D03*
%TO.P,U1,6,IO6*%
%TO.N,unconnected-(U1-IO6-Pad6)*%
X164108000Y-116800000D03*
%TO.P,U1,7,IO7*%
%TO.N,IO7*%
X165378000Y-116800000D03*
%TO.P,U1,8,IO15*%
%TO.N,unconnected-(U1-IO15-Pad8)*%
X166648000Y-116800000D03*
%TO.P,U1,9,IO16*%
%TO.N,unconnected-(U1-IO16-Pad9)*%
X167918000Y-116800000D03*
%TO.P,U1,10,IO17*%
%TO.N,unconnected-(U1-IO17-Pad10)*%
X169188000Y-116800000D03*
%TO.P,U1,11,IO18*%
%TO.N,unconnected-(U1-IO18-Pad11)*%
X170458000Y-116800000D03*
%TO.P,U1,12,IO8*%
%TO.N,unconnected-(U1-IO8-Pad12)*%
X171728000Y-116800000D03*
%TO.P,U1,13,IO19*%
%TO.N,unconnected-(U1-IO19-Pad13)*%
X172998000Y-116800000D03*
%TO.P,U1,14,IO20*%
%TO.N,IO20*%
X174268000Y-116800000D03*
D24*
%TO.P,U1,15,IO3*%
%TO.N,unconnected-(U1-IO3-Pad15)*%
X175518000Y-115035000D03*
%TO.P,U1,16,IO46*%
%TO.N,unconnected-(U1-IO46-Pad16)*%
X175518000Y-113765000D03*
%TO.P,U1,17,IO9*%
%TO.N,unconnected-(U1-IO9-Pad17)*%
X175518000Y-112495000D03*
%TO.P,U1,18,IO10*%
%TO.N,unconnected-(U1-IO10-Pad18)*%
X175518000Y-111225000D03*
%TO.P,U1,19,IO11*%
%TO.N,unconnected-(U1-IO11-Pad19)*%
X175518000Y-109955000D03*
%TO.P,U1,20,IO12*%
%TO.N,unconnected-(U1-IO12-Pad20)*%
X175518000Y-108685000D03*
%TO.P,U1,21,IO13*%
%TO.N,unconnected-(U1-IO13-Pad21)*%
X175518000Y-107415000D03*
%TO.P,U1,22,IO14*%
%TO.N,unconnected-(U1-IO14-Pad22)*%
X175518000Y-106145000D03*
%TO.P,U1,23,IO21*%
%TO.N,unconnected-(U1-IO21-Pad23)*%
X175518000Y-104875000D03*
%TO.P,U1,24,IO33*%
%TO.N,unconnected-(U1-IO33-Pad24)*%
X175518000Y-103605000D03*
%TO.P,U1,25,IO34*%
%TO.N,unconnected-(U1-IO34-Pad25)*%
X175518000Y-102335000D03*
%TO.P,U1,26,IO45*%
%TO.N,unconnected-(U1-IO45-Pad26)*%
X175518000Y-101065000D03*
D23*
%TO.P,U1,27,IO0*%
%TO.N,BOOT*%
X174268000Y-99300000D03*
%TO.P,U1,28,IO35*%
%TO.N,unconnected-(U1-IO35-Pad28)*%
X172998000Y-99300000D03*
%TO.P,U1,29,IO36*%
%TO.N,unconnected-(U1-IO36-Pad29)*%
X171728000Y-99300000D03*
%TO.P,U1,30,IO37*%
%TO.N,unconnected-(U1-IO37-Pad30)*%
X170458000Y-99300000D03*
%TO.P,U1,31,IO38*%
%TO.N,unconnected-(U1-IO38-Pad31)*%
X169188000Y-99300000D03*
%TO.P,U1,32,IO39*%
%TO.N,unconnected-(U1-IO39-Pad32)*%
X167918000Y-99300000D03*
%TO.P,U1,33,IO40*%
%TO.N,unconnected-(U1-IO40-Pad33)*%
X166648000Y-99300000D03*
%TO.P,U1,34,IO41*%
%TO.N,unconnected-(U1-IO41-Pad34)*%
X165378000Y-99300000D03*
%TO.P,U1,35,IO42*%
%TO.N,unconnected-(U1-IO42-Pad35)*%
X164108000Y-99300000D03*
%TO.P,U1,36,RX*%
%TO.N,RX*%
X162838000Y-99300000D03*
%TO.P,U1,37,TX*%
%TO.N,TX*%
X161568000Y-99300000D03*
%TO.P,U1,38,IO2*%
%TO.N,unconnected-(U1-IO2-Pad38)*%
X160298000Y-99300000D03*
%TO.P,U1,39,IO1*%
%TO.N,unconnected-(U1-IO1-Pad39)*%
X159028000Y-99300000D03*
%TO.P,U1,40,GND*%
%TO.N,GND*%
X157758000Y-99300000D03*
D25*
%TO.P,U1,41,EPAD*%
X164778000Y-110950000D03*
X166178000Y-110950000D03*
X164078000Y-110250000D03*
X165478000Y-110250000D03*
X166878000Y-110250000D03*
X164778000Y-109550000D03*
D26*
X165478000Y-109550000D03*
D25*
X166178000Y-109550000D03*
X164078000Y-108850000D03*
X165478000Y-108850000D03*
X166878000Y-108850000D03*
X164778000Y-108150000D03*
X166178000Y-108150000D03*
%TD*%
D20*
%TO.P,R1,1*%
%TO.N,RST*%
X160276000Y-118364000D03*
%TO.P,R1,2*%
%TO.N,+3V3*%
X159256000Y-118364000D03*
%TD*%
D27*
%TO.P,C3,1*%
%TO.N,+3V3*%
X157988000Y-119113000D03*
%TO.P,C3,2*%
%TO.N,GND*%
X157988000Y-120663000D03*
%TD*%
D12*
%TO.P,K1,1*%
%TO.N,AC_L_FUSED*%
X147574000Y-82160000D03*
D28*
%TO.P,K1,2*%
%TO.N,+3V3*%
X153524000Y-80210000D03*
D12*
%TO.P,K1,3*%
%TO.N,AC_NO*%
X141524000Y-68010000D03*
%TO.P,K1,4*%
%TO.N,AC_NC*%
X153574000Y-67960000D03*
D28*
%TO.P,K1,5*%
%TO.N,Net-(D1-A)*%
X141524000Y-80210000D03*
%TD*%
D29*
%TO.P,RV1,1*%
%TO.N,Net-(PS1-AC{slash}L)*%
X166116000Y-61722000D03*
%TO.P,RV1,2*%
%TO.N,AC_N*%
X173616000Y-58822000D03*
%TD*%
D30*
%TO.P,PS1,1,AC/L*%
%TO.N,Net-(PS1-AC{slash}L)*%
X163362000Y-66209500D03*
D31*
%TO.P,PS1,2,AC/N*%
%TO.N,AC_N*%
X168362000Y-66209500D03*
%TO.P,PS1,3,-Vout*%
%TO.N,GND*%
X158162000Y-95609500D03*
%TO.P,PS1,4,+Vout*%
%TO.N,+3V3*%
X173562000Y-95609500D03*
%TD*%
D32*
%TO.P,C2,1*%
%TO.N,Net-(PS1-AC{slash}L)*%
X164418000Y-54102000D03*
%TO.P,C2,2*%
%TO.N,AC_N*%
X174418000Y-54102000D03*
%TD*%
D33*
%TO.N,RST*%
X160274000Y-110744000D03*
X159893000Y-91694000D03*
%TO.N,+3V3*%
X153543000Y-85471000D03*
X158242000Y-82804000D03*
X158496000Y-118110000D03*
X167825500Y-101346000D03*
%TO.N,IO5*%
X162814000Y-115062000D03*
X155194000Y-95504000D03*
%TO.N,Net-(D1-A)*%
X152815000Y-89154000D03*
%TO.N,GND*%
X167894000Y-121031000D03*
X158877000Y-108077000D03*
X163957000Y-89789000D03*
X172593000Y-89789000D03*
X165735000Y-101346000D03*
X163957000Y-121031000D03*
X159004000Y-101346000D03*
X163957000Y-118618000D03*
X173482000Y-105918000D03*
X159766000Y-120650000D03*
X159512000Y-89789000D03*
X170307000Y-101473000D03*
X156972000Y-88392000D03*
X164719000Y-114808000D03*
X176403000Y-99568000D03*
X169926000Y-110871000D03*
X162052000Y-109601000D03*
X173482000Y-113157000D03*
X176149000Y-116713000D03*
X168402000Y-104648000D03*
X168275000Y-97282000D03*
X157353000Y-92964000D03*
X173990000Y-118491000D03*
X157734000Y-113919000D03*
X174244000Y-93345000D03*
%TD*%
D34*
%TO.N,Net-(PS1-AC{slash}L)*%
X161227000Y-53848000D02*
X164164000Y-53848000D01*
X164164000Y-53848000D02*
X164418000Y-54102000D01*
%TO.N,AC_L*%
X156527000Y-53848000D02*
X151638000Y-53848000D01*
X151638000Y-53848000D02*
X147574000Y-57912000D01*
X147574000Y-57912000D02*
X147574000Y-60960000D01*
%TO.N,AC_N*%
X157574000Y-60960000D02*
X157574000Y-61181000D01*
X167386000Y-70104000D02*
X168362000Y-69128000D01*
X157574000Y-61181000D02*
X159258000Y-62865000D01*
X160147000Y-70104000D02*
X167386000Y-70104000D01*
X159258000Y-62865000D02*
X159258000Y-69215000D01*
X159258000Y-69215000D02*
X160147000Y-70104000D01*
X168362000Y-69128000D02*
X168362000Y-66209500D01*
X174418000Y-54102000D02*
X174418000Y-58020000D01*
X174418000Y-58020000D02*
X173616000Y-58822000D01*
X173616000Y-58822000D02*
X173616000Y-60955500D01*
X173616000Y-60955500D02*
X168362000Y-66209500D01*
%TO.N,Net-(PS1-AC{slash}L)*%
X163362000Y-66209500D02*
X163362000Y-64476000D01*
X163362000Y-64476000D02*
X166116000Y-61722000D01*
X164418000Y-54102000D02*
X166116000Y-55800000D01*
X166116000Y-55800000D02*
X166116000Y-61722000D01*
%TO.N,RST*%
X159893000Y-91694000D02*
X160802000Y-91694000D01*
X160802000Y-91694000D02*
X160857000Y-91639000D01*
X160298000Y-116800000D02*
X160298000Y-110768000D01*
X160298000Y-119328000D02*
X160246000Y-119380000D01*
X160298000Y-110768000D02*
X160274000Y-110744000D01*
X160298000Y-116800000D02*
X160298000Y-119328000D01*
%TO.N,+3V3*%
X158496000Y-118605000D02*
X157988000Y-119113000D01*
X159028000Y-116800000D02*
X159028000Y-118136000D01*
X167825500Y-101346000D02*
X159028000Y-110143500D01*
X162062000Y-95250000D02*
X162062000Y-92974000D01*
X173562000Y-95609500D02*
X173562000Y-94822000D01*
X158369000Y-91567000D02*
X158369000Y-82931000D01*
X159028000Y-118136000D02*
X159256000Y-118364000D01*
X158369000Y-82931000D02*
X158242000Y-82804000D01*
X159028000Y-110143500D02*
X159028000Y-116800000D01*
X158496000Y-118110000D02*
X158496000Y-118605000D01*
X158496000Y-118110000D02*
X159002000Y-118110000D01*
X171704000Y-92964000D02*
X159766000Y-92964000D01*
X173562000Y-94822000D02*
X171704000Y-92964000D01*
X159766000Y-92964000D02*
X158369000Y-91567000D01*
X153543000Y-85471000D02*
X153543000Y-86326000D01*
X159002000Y-118110000D02*
X159256000Y-118364000D01*
%TO.N,Net-(Q1-G)*%
X155194000Y-91344000D02*
X155210000Y-91328000D01*
X155194000Y-93470000D02*
X155194000Y-91344000D01*
%TO.N,IO5*%
X162838000Y-115086000D02*
X162814000Y-115062000D01*
X155194000Y-95504000D02*
X155194000Y-94490000D01*
X162838000Y-116800000D02*
X162838000Y-115086000D01*
D35*
%TO.N,AC_L*%
X147574000Y-60960000D02*
X147574000Y-69570600D01*
D34*
%TO.N,Net-(D1-A)*%
X155145000Y-90028000D02*
X153543000Y-88426000D01*
X153543000Y-88426000D02*
X152815000Y-89154000D01*
X155210000Y-90028000D02*
X155145000Y-90028000D01*
%TO.N,IO7*%
X165378000Y-118263000D02*
X165479000Y-118364000D01*
X165378000Y-116800000D02*
X165378000Y-118263000D01*
%TO.N,Net-(D2-A)*%
X176253000Y-119507000D02*
X176253000Y-118516000D01*
X176253000Y-118516000D02*
X176278000Y-118491000D01*
%TO.N,BOOT*%
X174893000Y-99300000D02*
X174268000Y-99300000D01*
X175693000Y-98500000D02*
X174893000Y-99300000D01*
X175693000Y-91639000D02*
X175693000Y-98500000D01*
%TO.N,RX*%
X162838000Y-99300000D02*
X162838000Y-98300000D01*
X162838000Y-98300000D02*
X163856000Y-97282000D01*
X163856000Y-97282000D02*
X165110000Y-97282000D01*
X165110000Y-97282000D02*
X167142000Y-95250000D01*
%TO.N,TX*%
X161568000Y-99300000D02*
X161568000Y-98274000D01*
X164592000Y-95250000D02*
X164602000Y-95250000D01*
X161568000Y-98274000D02*
X164592000Y-95250000D01*
%TO.N,Net-(SW5-B)*%
X172339000Y-119888000D02*
X170815000Y-118364000D01*
X170815000Y-118364000D02*
X166499000Y-118364000D01*
D35*
%TO.N,AC_L_FUSED*%
X147574000Y-82160000D02*
X147574000Y-75717400D01*
D34*
%TO.N,IO20*%
X175258000Y-118491000D02*
X175258000Y-117790000D01*
X175258000Y-117790000D02*
X174268000Y-116800000D01*
%TD*%
%TA.AperFunction,Conductor*%
%TO.N,GND*%
G36*
X177737100Y-87400176D02*
G01*
X177782772Y-87445593D01*
X177799500Y-87507793D01*
X177799500Y-120899123D01*
X177799117Y-120908855D01*
X177795056Y-120960436D01*
X177794967Y-120961511D01*
X177782714Y-121101568D01*
X177779760Y-121119708D01*
X177760866Y-121198409D01*
X177760067Y-121201556D01*
X177731868Y-121306793D01*
X177726655Y-121322150D01*
X177693388Y-121402467D01*
X177691208Y-121407421D01*
X177647680Y-121500767D01*
X177641025Y-121513153D01*
X177594451Y-121589153D01*
X177590299Y-121595485D01*
X177532414Y-121678154D01*
X177525129Y-121687563D01*
X177466699Y-121755975D01*
X177460090Y-121763124D01*
X177389124Y-121834090D01*
X177381975Y-121840699D01*
X177313563Y-121899129D01*
X177304154Y-121906414D01*
X177221485Y-121964299D01*
X177215153Y-121968451D01*
X177139153Y-122015025D01*
X177126767Y-122021680D01*
X177033421Y-122065208D01*
X177028467Y-122067388D01*
X176948150Y-122100655D01*
X176932793Y-122105868D01*
X176827556Y-122134067D01*
X176824409Y-122134866D01*
X176745708Y-122153760D01*
X176727568Y-122156714D01*
X176587511Y-122168967D01*
X176586436Y-122169056D01*
X176534855Y-122173117D01*
X176525123Y-122173500D01*
X156461000Y-122173500D01*
X156399000Y-122156887D01*
X156353613Y-122111500D01*
X156337000Y-122049500D01*
X156337000Y-120913000D01*
X157013001Y-120913000D01*
X157013001Y-120936315D01*
X157023143Y-121035605D01*
X157076453Y-121196486D01*
X157165426Y-121340732D01*
X157285267Y-121460573D01*
X157429513Y-121549546D01*
X157590393Y-121602856D01*
X157689685Y-121613000D01*
X157738000Y-121613000D01*
X157738000Y-120913000D01*
X158238000Y-120913000D01*
X158238000Y-121612999D01*
X158286315Y-121612999D01*
X158385605Y-121602856D01*
X158546486Y-121549546D01*
X158690732Y-121460573D01*
X158810573Y-121340732D01*
X158899546Y-121196486D01*
X158952856Y-121035606D01*
X158963000Y-120936315D01*
X158963000Y-120913000D01*
X158238000Y-120913000D01*
X157738000Y-120913000D01*
X157013001Y-120913000D01*
X156337000Y-120913000D01*
X156337000Y-116550000D01*
X156808000Y-116550000D01*
X157508000Y-116550000D01*
X157508000Y-115550000D01*
X157260176Y-115550000D01*
X157200624Y-115556402D01*
X157065910Y-115606647D01*
X156950811Y-115692811D01*
X156864647Y-115807910D01*
X156814402Y-115942624D01*
X156808000Y-116002176D01*
X156808000Y-116550000D01*
X156337000Y-116550000D01*
X156337000Y-99550000D01*
X156808000Y-99550000D01*
X156808000Y-100097824D01*
X156814402Y-100157375D01*
X156864647Y-100292089D01*
X156950811Y-100407188D01*
X157065910Y-100493352D01*
X157200624Y-100543597D01*
X157260176Y-100550000D01*
X157508000Y-100550000D01*
X157508000Y-99550000D01*
X156808000Y-99550000D01*
X156337000Y-99550000D01*
X156337000Y-99050000D01*
X156808000Y-99050000D01*
X157508000Y-99050000D01*
X157508000Y-98050000D01*
X157260176Y-98050000D01*
X157200624Y-98056402D01*
X157065910Y-98106647D01*
X156950811Y-98192811D01*
X156864647Y-98307910D01*
X156814402Y-98442624D01*
X156808000Y-98502176D01*
X156808000Y-99050000D01*
X156337000Y-99050000D01*
X156337000Y-96942698D01*
X157182354Y-96942698D01*
X157189155Y-96948506D01*
X157410597Y-97084205D01*
X157650544Y-97183596D01*
X157903083Y-97244224D01*
X158162000Y-97264601D01*
X158420916Y-97244224D01*
X158673455Y-97183596D01*
X158913397Y-97084207D01*
X159134849Y-96948503D01*
X159141645Y-96942698D01*
X158162000Y-95963053D01*
X157182354Y-96942698D01*
X156337000Y-96942698D01*
X156337000Y-96123537D01*
X156351262Y-96065801D01*
X156390766Y-96021345D01*
X156446425Y-96000397D01*
X156505438Y-96007773D01*
X156554228Y-96041778D01*
X156581574Y-96094590D01*
X156587903Y-96120955D01*
X156687294Y-96360902D01*
X156822993Y-96582343D01*
X156828801Y-96589144D01*
X157808447Y-95609501D01*
X158515553Y-95609501D01*
X159495198Y-96589145D01*
X159501003Y-96582349D01*
X159636707Y-96360897D01*
X159736096Y-96120955D01*
X159796724Y-95868416D01*
X159817101Y-95609499D01*
X159796724Y-95350583D01*
X159736096Y-95098044D01*
X159636705Y-94858097D01*
X159501006Y-94636655D01*
X159495198Y-94629854D01*
X158515553Y-95609500D01*
X158515553Y-95609501D01*
X157808447Y-95609501D01*
X157808447Y-95609500D01*
X156828801Y-94629854D01*
X156822992Y-94636656D01*
X156687294Y-94858097D01*
X156587903Y-95098044D01*
X156581574Y-95124410D01*
X156554228Y-95177222D01*
X156505438Y-95211227D01*
X156446425Y-95218603D01*
X156390766Y-95197655D01*
X156351262Y-95153199D01*
X156337000Y-95095463D01*
X156337000Y-94276301D01*
X157182354Y-94276301D01*
X158162000Y-95255947D01*
X158162001Y-95255947D01*
X159141645Y-94276301D01*
X159134843Y-94270493D01*
X158913402Y-94134794D01*
X158673455Y-94035403D01*
X158420916Y-93974775D01*
X158162000Y-93954398D01*
X157903083Y-93974775D01*
X157650544Y-94035403D01*
X157410597Y-94134794D01*
X157189156Y-94270492D01*
X157182354Y-94276301D01*
X156337000Y-94276301D01*
X156337000Y-91383785D01*
X156355505Y-91318618D01*
X156405496Y-91272901D01*
X156472053Y-91260279D01*
X156535311Y-91284518D01*
X156617911Y-91346352D01*
X156752624Y-91396597D01*
X156812176Y-91403000D01*
X156985000Y-91403000D01*
X156985000Y-89953000D01*
X156812176Y-89953000D01*
X156752624Y-89959402D01*
X156617911Y-90009647D01*
X156535311Y-90071482D01*
X156472053Y-90095721D01*
X156405496Y-90083099D01*
X156355505Y-90037382D01*
X156337000Y-89972215D01*
X156337000Y-87626309D01*
X156353498Y-87564509D01*
X156398601Y-87519153D01*
X156460306Y-87502311D01*
X156606258Y-87501495D01*
X157618807Y-87495840D01*
X157681100Y-87512221D01*
X157726772Y-87557638D01*
X157743500Y-87619838D01*
X157743500Y-89829540D01*
X157724607Y-89895331D01*
X157673686Y-89941074D01*
X157614474Y-89951397D01*
X157614474Y-89953000D01*
X157435000Y-89953000D01*
X157435000Y-91403000D01*
X157614474Y-91403000D01*
X157614474Y-91405019D01*
X157670852Y-91414528D01*
X157721560Y-91458645D01*
X157741800Y-91522739D01*
X157743439Y-91574872D01*
X157743500Y-91578768D01*
X157743500Y-91606349D01*
X157744003Y-91610334D01*
X157744918Y-91621967D01*
X157746290Y-91665626D01*
X157751879Y-91684860D01*
X157755825Y-91703916D01*
X157758335Y-91723792D01*
X157774414Y-91764404D01*
X157778197Y-91775451D01*
X157790382Y-91817391D01*
X157800580Y-91834635D01*
X157809136Y-91852100D01*
X157816514Y-91870732D01*
X157816515Y-91870733D01*
X157842180Y-91906059D01*
X157848593Y-91915822D01*
X157870826Y-91953416D01*
X157870829Y-91953419D01*
X157870830Y-91953420D01*
X157884995Y-91967585D01*
X157897627Y-91982375D01*
X157909406Y-91998587D01*
X157943058Y-92026426D01*
X157951699Y-92034289D01*
X159265196Y-93347787D01*
X159278096Y-93363888D01*
X159329223Y-93411900D01*
X159332020Y-93414611D01*
X159351529Y-93434120D01*
X159354711Y-93436588D01*
X159363571Y-93444155D01*
X159395418Y-93474062D01*
X159412970Y-93483711D01*
X159429238Y-93494397D01*
X159445064Y-93506673D01*
X159485146Y-93524017D01*
X159495633Y-93529155D01*
X159533907Y-93550197D01*
X159542410Y-93552379D01*
X159553308Y-93555178D01*
X159571713Y-93561478D01*
X159590104Y-93569437D01*
X159633250Y-93576270D01*
X159644668Y-93578635D01*
X159686981Y-93589500D01*
X159707016Y-93589500D01*
X159726415Y-93591027D01*
X159746196Y-93594160D01*
X159789674Y-93590050D01*
X159801344Y-93589500D01*
X161312500Y-93589500D01*
X161374500Y-93606113D01*
X161419887Y-93651500D01*
X161436500Y-93713500D01*
X161436500Y-93775501D01*
X161419887Y-93837501D01*
X161374500Y-93882888D01*
X161312500Y-93899501D01*
X161164128Y-93899501D01*
X161134322Y-93902705D01*
X161104515Y-93905909D01*
X160969669Y-93956204D01*
X160854454Y-94042454D01*
X160768204Y-94157668D01*
X160717909Y-94292516D01*
X160711500Y-94352130D01*
X160711500Y-96147869D01*
X160717909Y-96207483D01*
X160768204Y-96342331D01*
X160854454Y-96457546D01*
X160969669Y-96543796D01*
X161104517Y-96594091D01*
X161164127Y-96600500D01*
X162057548Y-96600499D01*
X162113842Y-96614014D01*
X162157865Y-96651614D01*
X162180020Y-96705101D01*
X162175478Y-96762817D01*
X162145228Y-96812180D01*
X161184208Y-97773199D01*
X161168110Y-97786096D01*
X161120096Y-97837225D01*
X161117391Y-97840017D01*
X161097874Y-97859534D01*
X161095415Y-97862705D01*
X161087842Y-97871572D01*
X161057935Y-97903420D01*
X161048285Y-97920974D01*
X161037609Y-97937228D01*
X161025326Y-97953063D01*
X161010178Y-97988067D01*
X160972004Y-98037086D01*
X160914845Y-98061434D01*
X160871043Y-98056874D01*
X160870968Y-98057574D01*
X160855483Y-98055909D01*
X160795873Y-98049500D01*
X160795869Y-98049500D01*
X159800130Y-98049500D01*
X159740516Y-98055909D01*
X159706331Y-98068659D01*
X159663000Y-98076476D01*
X159619668Y-98068658D01*
X159585486Y-98055909D01*
X159559935Y-98053162D01*
X159525873Y-98049500D01*
X159525869Y-98049500D01*
X158530130Y-98049500D01*
X158470514Y-98055909D01*
X158435617Y-98068925D01*
X158392284Y-98076743D01*
X158348952Y-98068925D01*
X158315377Y-98056402D01*
X158255824Y-98050000D01*
X158008000Y-98050000D01*
X158008000Y-100550000D01*
X158255824Y-100550000D01*
X158315376Y-100543597D01*
X158348949Y-100531075D01*
X158392284Y-100523256D01*
X158435618Y-100531074D01*
X158453867Y-100537881D01*
X158469747Y-100543804D01*
X158470517Y-100544091D01*
X158530127Y-100550500D01*
X159525872Y-100550499D01*
X159585483Y-100544091D01*
X159619665Y-100531341D01*
X159662999Y-100523523D01*
X159706332Y-100531340D01*
X159740517Y-100544091D01*
X159800127Y-100550500D01*
X160795872Y-100550499D01*
X160855483Y-100544091D01*
X160889665Y-100531341D01*
X160932999Y-100523523D01*
X160976332Y-100531340D01*
X161010517Y-100544091D01*
X161070127Y-100550500D01*
X162065872Y-100550499D01*
X162125483Y-100544091D01*
X162159665Y-100531341D01*
X162202999Y-100523523D01*
X162246332Y-100531340D01*
X162280517Y-100544091D01*
X162340127Y-100550500D01*
X163335872Y-100550499D01*
X163395483Y-100544091D01*
X163429665Y-100531341D01*
X163472999Y-100523523D01*
X163516332Y-100531340D01*
X163550517Y-100544091D01*
X163610127Y-100550500D01*
X164605872Y-100550499D01*
X164665483Y-100544091D01*
X164699665Y-100531341D01*
X164742999Y-100523523D01*
X164786332Y-100531340D01*
X164820517Y-100544091D01*
X164880127Y-100550500D01*
X165875872Y-100550499D01*
X165935483Y-100544091D01*
X165969665Y-100531341D01*
X166012999Y-100523523D01*
X166056332Y-100531340D01*
X166090517Y-100544091D01*
X166150127Y-100550500D01*
X167051521Y-100550499D01*
X167106656Y-100563431D01*
X167150291Y-100599529D01*
X167173325Y-100651264D01*
X167170953Y-100707845D01*
X167143671Y-100757471D01*
X167092966Y-100813783D01*
X166998320Y-100977715D01*
X166939826Y-101157742D01*
X166922178Y-101325651D01*
X166910777Y-101366073D01*
X166886538Y-101400370D01*
X158644208Y-109642699D01*
X158628110Y-109655596D01*
X158580096Y-109706725D01*
X158577391Y-109709517D01*
X158557874Y-109729034D01*
X158555415Y-109732205D01*
X158547842Y-109741072D01*
X158517935Y-109772920D01*
X158508285Y-109790474D01*
X158497609Y-109806728D01*
X158485326Y-109822563D01*
X158467975Y-109862658D01*
X158462838Y-109873144D01*
X158441802Y-109911407D01*
X158436821Y-109930809D01*
X158430520Y-109949211D01*
X158422561Y-109967602D01*
X158415728Y-110010742D01*
X158413360Y-110022174D01*
X158402500Y-110064478D01*
X158402500Y-110084516D01*
X158400973Y-110103915D01*
X158397840Y-110123694D01*
X158401950Y-110167175D01*
X158402500Y-110178844D01*
X158402500Y-115427723D01*
X158383606Y-115493516D01*
X158332681Y-115539260D01*
X158265245Y-115551012D01*
X158255832Y-115550000D01*
X158008000Y-115550000D01*
X158008000Y-116926000D01*
X157991387Y-116988000D01*
X157946000Y-117033387D01*
X157884000Y-117050000D01*
X156808000Y-117050000D01*
X156808000Y-117597824D01*
X156814402Y-117657375D01*
X156864647Y-117792089D01*
X156950811Y-117907188D01*
X157065910Y-117993352D01*
X157200624Y-118043597D01*
X157260176Y-118050000D01*
X157277402Y-118050000D01*
X157338776Y-118066254D01*
X157384060Y-118110755D01*
X157401383Y-118171836D01*
X157386203Y-118233484D01*
X157342499Y-118279538D01*
X157284955Y-118315031D01*
X157165031Y-118434955D01*
X157075997Y-118579300D01*
X157022650Y-118740292D01*
X157012500Y-118839655D01*
X157012500Y-119386344D01*
X157022650Y-119485707D01*
X157075997Y-119646699D01*
X157165031Y-119791044D01*
X157174659Y-119800672D01*
X157206753Y-119856258D01*
X157206753Y-119920445D01*
X157174661Y-119976032D01*
X157165426Y-119985266D01*
X157076453Y-120129513D01*
X157023143Y-120290393D01*
X157013000Y-120389685D01*
X157013000Y-120413000D01*
X158962999Y-120413000D01*
X158962999Y-120389686D01*
X158955852Y-120319724D01*
X158965610Y-120257412D01*
X159004759Y-120207961D01*
X159036000Y-120184505D01*
X159036000Y-119308500D01*
X159052613Y-119246500D01*
X159098000Y-119201113D01*
X159159999Y-119184500D01*
X159246354Y-119184499D01*
X159341500Y-119184499D01*
X159403500Y-119201112D01*
X159448887Y-119246499D01*
X159465500Y-119308499D01*
X159465500Y-119614688D01*
X159468357Y-119650996D01*
X159513505Y-119806394D01*
X159518732Y-119815232D01*
X159536000Y-119878353D01*
X159536000Y-120184504D01*
X159682193Y-120142032D01*
X159702383Y-120130091D01*
X159765506Y-120112821D01*
X159828629Y-120130089D01*
X159849605Y-120142494D01*
X160005003Y-120187642D01*
X160005007Y-120187643D01*
X160041310Y-120190500D01*
X160450688Y-120190500D01*
X160450690Y-120190500D01*
X160486993Y-120187643D01*
X160642395Y-120142494D01*
X160781687Y-120060117D01*
X160896117Y-119945687D01*
X160978494Y-119806395D01*
X161023643Y-119650993D01*
X161026500Y-119614690D01*
X161026500Y-119145310D01*
X161023643Y-119109007D01*
X161021860Y-119102871D01*
X160974124Y-118938562D01*
X160975903Y-118938044D01*
X160964325Y-118895728D01*
X160981593Y-118832604D01*
X160998869Y-118803393D01*
X161043665Y-118649204D01*
X161046500Y-118613181D01*
X161046499Y-118174498D01*
X161063112Y-118112499D01*
X161108499Y-118067112D01*
X161170495Y-118050499D01*
X162065872Y-118050499D01*
X162125483Y-118044091D01*
X162159665Y-118031341D01*
X162202999Y-118023523D01*
X162246332Y-118031340D01*
X162280517Y-118044091D01*
X162340127Y-118050500D01*
X163335872Y-118050499D01*
X163395483Y-118044091D01*
X163429665Y-118031341D01*
X163472999Y-118023523D01*
X163516332Y-118031340D01*
X163550517Y-118044091D01*
X163610127Y-118050500D01*
X164584500Y-118050499D01*
X164646500Y-118067112D01*
X164691887Y-118112499D01*
X164708500Y-118174499D01*
X164708500Y-118613179D01*
X164711335Y-118649205D01*
X164756130Y-118803392D01*
X164831237Y-118930390D01*
X164837865Y-118941598D01*
X164951402Y-119055135D01*
X165089607Y-119136869D01*
X165243796Y-119181665D01*
X165279819Y-119184500D01*
X165678180Y-119184499D01*
X165714204Y-119181665D01*
X165868393Y-119136869D01*
X165925879Y-119102870D01*
X165988998Y-119085603D01*
X166052117Y-119102870D01*
X166109607Y-119136869D01*
X166109609Y-119136870D01*
X166227619Y-119171154D01*
X166263796Y-119181665D01*
X166299819Y-119184500D01*
X166698180Y-119184499D01*
X166734204Y-119181665D01*
X166888393Y-119136869D01*
X167026598Y-119055135D01*
X167055913Y-119025819D01*
X167096142Y-118998939D01*
X167143595Y-118989500D01*
X168324500Y-118989500D01*
X168386500Y-119006113D01*
X168431887Y-119051500D01*
X168448500Y-119113500D01*
X168448500Y-120785869D01*
X168454909Y-120845484D01*
X168474915Y-120899123D01*
X168505204Y-120980331D01*
X168591454Y-121095546D01*
X168706669Y-121181796D01*
X168841517Y-121232091D01*
X168901127Y-121238500D01*
X170696872Y-121238499D01*
X170756483Y-121232091D01*
X170891331Y-121181796D01*
X171006546Y-121095546D01*
X171092796Y-120980331D01*
X171141810Y-120848916D01*
X171176789Y-120798537D01*
X171231634Y-120771084D01*
X171292927Y-120773273D01*
X171345673Y-120804568D01*
X171467599Y-120926495D01*
X171661170Y-121062035D01*
X171875337Y-121161903D01*
X172103592Y-121223063D01*
X172339000Y-121243659D01*
X172574408Y-121223063D01*
X172802663Y-121161903D01*
X173016830Y-121062035D01*
X173210401Y-120926495D01*
X173377495Y-120759401D01*
X173513035Y-120565830D01*
X173612903Y-120351663D01*
X173674063Y-120123408D01*
X173694659Y-119888000D01*
X173688292Y-119815232D01*
X173683197Y-119757000D01*
X174488954Y-119757000D01*
X174490889Y-119781597D01*
X174536530Y-119938696D01*
X174619808Y-120079511D01*
X174735488Y-120195191D01*
X174876303Y-120278469D01*
X175032998Y-120323994D01*
X175033000Y-120323993D01*
X175033000Y-119757000D01*
X174488954Y-119757000D01*
X173683197Y-119757000D01*
X173674063Y-119652592D01*
X173629347Y-119485708D01*
X173612903Y-119424337D01*
X173513035Y-119210171D01*
X173377495Y-119016599D01*
X173210401Y-118849505D01*
X173016830Y-118713965D01*
X172802663Y-118614097D01*
X172741501Y-118597709D01*
X172574407Y-118552936D01*
X172339000Y-118532340D01*
X172103591Y-118552936D01*
X172003125Y-118579855D01*
X171938939Y-118579855D01*
X171883352Y-118547761D01*
X171597771Y-118262180D01*
X171567521Y-118212817D01*
X171562979Y-118155101D01*
X171585134Y-118101614D01*
X171629157Y-118064014D01*
X171685452Y-118050499D01*
X172225870Y-118050499D01*
X172225872Y-118050499D01*
X172285483Y-118044091D01*
X172319665Y-118031341D01*
X172362999Y-118023523D01*
X172406332Y-118031340D01*
X172440517Y-118044091D01*
X172500127Y-118050500D01*
X173495872Y-118050499D01*
X173555483Y-118044091D01*
X173589665Y-118031341D01*
X173632999Y-118023523D01*
X173676332Y-118031340D01*
X173710517Y-118044091D01*
X173770127Y-118050500D01*
X174370300Y-118050499D01*
X174425724Y-118063575D01*
X174469459Y-118100044D01*
X174492281Y-118152216D01*
X174490197Y-118193041D01*
X174491332Y-118193131D01*
X174490335Y-118205794D01*
X174490335Y-118205796D01*
X174488745Y-118225997D01*
X174487500Y-118241822D01*
X174487500Y-118740179D01*
X174490335Y-118776205D01*
X174535130Y-118930391D01*
X174541351Y-118940910D01*
X174558619Y-119004029D01*
X174541353Y-119067149D01*
X174536530Y-119075303D01*
X174490889Y-119232400D01*
X174488953Y-119257000D01*
X174827317Y-119257000D01*
X174861912Y-119261924D01*
X174886481Y-119269062D01*
X175022796Y-119308665D01*
X175058819Y-119311500D01*
X175333501Y-119311499D01*
X175395500Y-119328112D01*
X175440887Y-119373499D01*
X175457500Y-119435499D01*
X175457500Y-119744938D01*
X175460391Y-119781678D01*
X175506067Y-119938893D01*
X175506068Y-119938895D01*
X175506069Y-119938897D01*
X175515732Y-119955237D01*
X175533000Y-120018357D01*
X175533000Y-120323993D01*
X175533001Y-120323994D01*
X175689695Y-120278469D01*
X175704385Y-120269782D01*
X175767508Y-120252512D01*
X175830631Y-120269781D01*
X175846103Y-120278931D01*
X176003321Y-120324608D01*
X176003325Y-120324609D01*
X176040060Y-120327500D01*
X176465938Y-120327500D01*
X176465940Y-120327500D01*
X176502675Y-120324609D01*
X176659897Y-120278931D01*
X176800820Y-120195590D01*
X176916590Y-120079820D01*
X176999931Y-119938897D01*
X177045609Y-119781675D01*
X177048500Y-119744940D01*
X177048500Y-119269060D01*
X177045609Y-119232325D01*
X177036541Y-119201112D01*
X176999932Y-119075105D01*
X176999931Y-119075103D01*
X176994938Y-119066661D01*
X176977670Y-119003538D01*
X176994941Y-118940416D01*
X177000869Y-118930393D01*
X177045665Y-118776204D01*
X177048500Y-118740181D01*
X177048499Y-118241820D01*
X177045665Y-118205796D01*
X177000869Y-118051607D01*
X176919135Y-117913402D01*
X176805598Y-117799865D01*
X176805597Y-117799864D01*
X176667392Y-117718130D01*
X176513206Y-117673335D01*
X176498794Y-117672200D01*
X176477181Y-117670500D01*
X176477178Y-117670500D01*
X176078820Y-117670500D01*
X176042795Y-117673335D01*
X176009225Y-117683088D01*
X175948850Y-117685301D01*
X175894595Y-117658722D01*
X175859340Y-117609659D01*
X175852583Y-117592593D01*
X175848805Y-117581560D01*
X175836617Y-117539610D01*
X175826421Y-117522369D01*
X175817863Y-117504902D01*
X175810486Y-117486268D01*
X175784798Y-117450912D01*
X175778409Y-117441184D01*
X175756170Y-117403579D01*
X175742005Y-117389414D01*
X175729369Y-117374620D01*
X175717595Y-117358414D01*
X175717594Y-117358413D01*
X175683935Y-117330568D01*
X175675305Y-117322714D01*
X175254818Y-116902227D01*
X175227938Y-116861999D01*
X175218499Y-116814546D01*
X175218499Y-116109499D01*
X175235112Y-116047499D01*
X175280499Y-116002112D01*
X175342499Y-115985499D01*
X176315870Y-115985499D01*
X176315872Y-115985499D01*
X176375483Y-115979091D01*
X176510331Y-115928796D01*
X176625546Y-115842546D01*
X176711796Y-115727331D01*
X176762091Y-115592483D01*
X176768500Y-115532873D01*
X176768499Y-114537128D01*
X176762091Y-114477517D01*
X176749340Y-114443331D01*
X176741523Y-114399999D01*
X176749342Y-114356665D01*
X176762090Y-114322485D01*
X176762089Y-114322485D01*
X176762091Y-114322483D01*
X176768500Y-114262873D01*
X176768499Y-113267128D01*
X176762091Y-113207517D01*
X176749340Y-113173331D01*
X176741523Y-113130000D01*
X176749342Y-113086665D01*
X176762090Y-113052485D01*
X176762089Y-113052485D01*
X176762091Y-113052483D01*
X176768500Y-112992873D01*
X176768499Y-111997128D01*
X176762091Y-111937517D01*
X176749340Y-111903330D01*
X176741523Y-111860000D01*
X176749342Y-111816665D01*
X176762090Y-111782485D01*
X176762089Y-111782485D01*
X176762091Y-111782483D01*
X176768500Y-111722873D01*
X176768499Y-110727128D01*
X176762091Y-110667517D01*
X176749340Y-110633330D01*
X176741523Y-110590000D01*
X176749342Y-110546665D01*
X176762090Y-110512485D01*
X176762089Y-110512485D01*
X176762091Y-110512483D01*
X176768500Y-110452873D01*
X176768499Y-109457128D01*
X176762091Y-109397517D01*
X176749340Y-109363331D01*
X176741523Y-109319999D01*
X176749342Y-109276665D01*
X176762090Y-109242485D01*
X176762089Y-109242485D01*
X176762091Y-109242483D01*
X176768500Y-109182873D01*
X176768499Y-108187128D01*
X176762091Y-108127517D01*
X176749340Y-108093330D01*
X176741523Y-108050000D01*
X176749342Y-108006665D01*
X176762090Y-107972485D01*
X176762089Y-107972485D01*
X176762091Y-107972483D01*
X176768500Y-107912873D01*
X176768499Y-106917128D01*
X176762091Y-106857517D01*
X176749340Y-106823330D01*
X176741523Y-106780000D01*
X176749342Y-106736665D01*
X176762090Y-106702485D01*
X176762089Y-106702485D01*
X176762091Y-106702483D01*
X176768500Y-106642873D01*
X176768499Y-105647128D01*
X176762091Y-105587517D01*
X176749340Y-105553330D01*
X176741523Y-105510000D01*
X176749342Y-105466665D01*
X176762090Y-105432485D01*
X176762089Y-105432485D01*
X176762091Y-105432483D01*
X176768500Y-105372873D01*
X176768499Y-104377128D01*
X176762091Y-104317517D01*
X176749340Y-104283331D01*
X176741523Y-104239999D01*
X176749342Y-104196665D01*
X176762090Y-104162485D01*
X176762089Y-104162485D01*
X176762091Y-104162483D01*
X176768500Y-104102873D01*
X176768499Y-103107128D01*
X176762091Y-103047517D01*
X176749340Y-103013330D01*
X176741523Y-102970000D01*
X176749342Y-102926665D01*
X176762090Y-102892485D01*
X176762089Y-102892485D01*
X176762091Y-102892483D01*
X176768500Y-102832873D01*
X176768499Y-101837128D01*
X176762091Y-101777517D01*
X176749340Y-101743330D01*
X176741523Y-101700000D01*
X176749342Y-101656665D01*
X176762090Y-101622485D01*
X176762089Y-101622485D01*
X176762091Y-101622483D01*
X176768500Y-101562873D01*
X176768499Y-100567128D01*
X176762091Y-100507517D01*
X176711796Y-100372669D01*
X176625546Y-100257454D01*
X176510331Y-100171204D01*
X176375483Y-100120909D01*
X176315873Y-100114500D01*
X176315869Y-100114500D01*
X175342500Y-100114500D01*
X175280500Y-100097887D01*
X175235113Y-100052501D01*
X175218500Y-99990501D01*
X175218499Y-99904927D01*
X175234790Y-99843486D01*
X175268417Y-99809330D01*
X175268339Y-99809252D01*
X175278443Y-99799146D01*
X175279383Y-99798191D01*
X175279420Y-99798170D01*
X175293585Y-99784004D01*
X175308373Y-99771373D01*
X175324587Y-99759594D01*
X175352438Y-99725926D01*
X175360279Y-99717309D01*
X176076788Y-99000801D01*
X176092885Y-98987906D01*
X176094873Y-98985787D01*
X176094877Y-98985786D01*
X176140948Y-98936723D01*
X176143566Y-98934023D01*
X176163120Y-98914471D01*
X176165581Y-98911298D01*
X176173156Y-98902427D01*
X176203062Y-98870582D01*
X176212712Y-98853027D01*
X176223400Y-98836757D01*
X176235671Y-98820938D01*
X176235673Y-98820936D01*
X176253026Y-98780832D01*
X176258157Y-98770362D01*
X176279197Y-98732092D01*
X176284175Y-98712699D01*
X176290481Y-98694282D01*
X176292018Y-98690728D01*
X176298438Y-98675896D01*
X176305272Y-98632745D01*
X176307635Y-98621331D01*
X176318500Y-98579019D01*
X176318500Y-98558984D01*
X176320027Y-98539585D01*
X176323160Y-98519804D01*
X176319050Y-98476325D01*
X176318500Y-98464656D01*
X176318500Y-92813499D01*
X176335113Y-92751499D01*
X176380500Y-92706112D01*
X176442500Y-92689499D01*
X176640870Y-92689499D01*
X176640872Y-92689499D01*
X176700483Y-92683091D01*
X176835331Y-92632796D01*
X176950546Y-92546546D01*
X177036796Y-92431331D01*
X177087091Y-92296483D01*
X177093500Y-92236873D01*
X177093499Y-91041128D01*
X177087091Y-90981517D01*
X177036796Y-90846669D01*
X176950546Y-90731454D01*
X176835331Y-90645204D01*
X176700483Y-90594909D01*
X176685890Y-90589466D01*
X176686134Y-90588810D01*
X176647498Y-90574661D01*
X176607469Y-90530098D01*
X176593000Y-90471970D01*
X176593000Y-89105526D01*
X176607468Y-89047400D01*
X176647495Y-89002837D01*
X176686035Y-88988721D01*
X176685782Y-88988041D01*
X176835089Y-88932352D01*
X176950188Y-88846188D01*
X177036352Y-88731089D01*
X177086597Y-88596375D01*
X177093000Y-88536824D01*
X177093000Y-88189000D01*
X174293000Y-88189000D01*
X174293000Y-88365000D01*
X174276387Y-88427000D01*
X174231000Y-88472387D01*
X174169000Y-88489000D01*
X173593000Y-88489000D01*
X173593000Y-91089000D01*
X174168500Y-91089000D01*
X174230500Y-91105613D01*
X174275887Y-91151000D01*
X174292500Y-91213000D01*
X174292500Y-92236869D01*
X174296761Y-92276500D01*
X174298909Y-92296483D01*
X174349204Y-92431331D01*
X174435454Y-92546546D01*
X174550669Y-92632796D01*
X174685517Y-92683091D01*
X174745127Y-92689500D01*
X174943500Y-92689500D01*
X175005500Y-92706113D01*
X175050887Y-92751500D01*
X175067500Y-92813500D01*
X175067500Y-94494708D01*
X175053087Y-94552731D01*
X175013198Y-94597266D01*
X174957107Y-94617959D01*
X174897853Y-94610000D01*
X174849211Y-94575240D01*
X174732689Y-94438811D01*
X174561400Y-94292516D01*
X174535143Y-94270090D01*
X174535140Y-94270088D01*
X174313628Y-94134346D01*
X174218470Y-94094930D01*
X174073610Y-94034926D01*
X173820995Y-93974279D01*
X173625498Y-93958893D01*
X173583313Y-93947885D01*
X173547546Y-93922956D01*
X172204802Y-92580211D01*
X172191906Y-92564113D01*
X172140775Y-92516098D01*
X172137978Y-92513387D01*
X172118470Y-92493879D01*
X172115290Y-92491412D01*
X172106424Y-92483839D01*
X172074582Y-92453938D01*
X172057024Y-92444285D01*
X172040764Y-92433604D01*
X172024936Y-92421327D01*
X171984851Y-92403980D01*
X171974361Y-92398841D01*
X171936091Y-92377802D01*
X171916691Y-92372821D01*
X171898284Y-92366519D01*
X171879897Y-92358562D01*
X171836758Y-92351729D01*
X171825324Y-92349361D01*
X171783019Y-92338500D01*
X171762984Y-92338500D01*
X171743586Y-92336973D01*
X171736162Y-92335797D01*
X171723805Y-92333840D01*
X171723804Y-92333840D01*
X171690751Y-92336964D01*
X171680325Y-92337950D01*
X171668656Y-92338500D01*
X171017500Y-92338500D01*
X170955500Y-92321887D01*
X170910113Y-92276500D01*
X170893500Y-92214500D01*
X170893500Y-91723792D01*
X170893499Y-91212999D01*
X170910112Y-91151000D01*
X170955499Y-91105613D01*
X171017499Y-91089000D01*
X171593000Y-91089000D01*
X171593000Y-88489000D01*
X171017000Y-88489000D01*
X170955000Y-88472387D01*
X170909613Y-88427000D01*
X170893000Y-88365000D01*
X170893000Y-88189000D01*
X165657000Y-88189000D01*
X165657000Y-88365000D01*
X165640387Y-88427000D01*
X165595000Y-88472387D01*
X165533000Y-88489000D01*
X164957000Y-88489000D01*
X164957000Y-91089000D01*
X165532500Y-91089000D01*
X165594500Y-91105613D01*
X165639887Y-91151000D01*
X165656500Y-91213000D01*
X165656501Y-92214500D01*
X165639888Y-92276500D01*
X165594501Y-92321887D01*
X165532501Y-92338500D01*
X162381500Y-92338500D01*
X162319500Y-92321887D01*
X162274113Y-92276500D01*
X162257500Y-92214500D01*
X162257500Y-91723792D01*
X162257499Y-91212999D01*
X162274112Y-91151000D01*
X162319499Y-91105613D01*
X162381499Y-91089000D01*
X162957000Y-91089000D01*
X162957000Y-88489000D01*
X162381000Y-88489000D01*
X162319000Y-88472387D01*
X162273613Y-88427000D01*
X162257000Y-88365000D01*
X162257000Y-88189000D01*
X159457000Y-88189000D01*
X159457000Y-88536824D01*
X159463402Y-88596375D01*
X159513647Y-88731089D01*
X159599811Y-88846188D01*
X159714910Y-88932352D01*
X159864218Y-88988041D01*
X159863964Y-88988721D01*
X159902505Y-89002837D01*
X159942532Y-89047400D01*
X159957000Y-89105526D01*
X159957000Y-90471970D01*
X159942531Y-90530098D01*
X159902502Y-90574661D01*
X159863865Y-90588810D01*
X159864110Y-90589466D01*
X159849516Y-90594909D01*
X159849517Y-90594909D01*
X159714669Y-90645204D01*
X159599454Y-90731454D01*
X159513204Y-90846669D01*
X159513203Y-90846670D01*
X159502520Y-90860942D01*
X159501738Y-90860357D01*
X159491823Y-90876319D01*
X159451920Y-90904661D01*
X159440270Y-90909848D01*
X159287129Y-91021110D01*
X159210650Y-91106050D01*
X159161723Y-91139301D01*
X159102959Y-91146100D01*
X159047731Y-91124900D01*
X159008611Y-91080527D01*
X158994500Y-91023078D01*
X158994500Y-87611463D01*
X159010998Y-87549663D01*
X159056101Y-87504307D01*
X159117807Y-87487465D01*
X159332307Y-87486267D01*
X159394600Y-87502648D01*
X159440272Y-87548065D01*
X159457000Y-87610265D01*
X159457000Y-87689000D01*
X162257000Y-87689000D01*
X162257000Y-87593236D01*
X162273498Y-87531436D01*
X162318601Y-87486080D01*
X162380305Y-87469238D01*
X164121665Y-87459510D01*
X165532307Y-87451630D01*
X165594600Y-87468011D01*
X165640272Y-87513428D01*
X165657000Y-87575628D01*
X165657000Y-87689000D01*
X170893000Y-87689000D01*
X170893000Y-87544991D01*
X170909498Y-87483191D01*
X170954600Y-87437836D01*
X171016307Y-87420993D01*
X174168307Y-87403384D01*
X174230600Y-87419765D01*
X174276272Y-87465182D01*
X174293000Y-87527382D01*
X174293000Y-87689000D01*
X177093000Y-87689000D01*
X177093000Y-87510354D01*
X177109498Y-87448554D01*
X177154601Y-87403198D01*
X177216307Y-87386356D01*
X177674807Y-87383795D01*
X177737100Y-87400176D01*
G37*
%TD.AperFunction*%
%TA.AperFunction,Conductor*%
G36*
X173676332Y-100531340D02*
G01*
X173710517Y-100544091D01*
X173770127Y-100550500D01*
X174143500Y-100550499D01*
X174205500Y-100567112D01*
X174250887Y-100612499D01*
X174267500Y-100674499D01*
X174267500Y-101562869D01*
X174273909Y-101622485D01*
X174286658Y-101656667D01*
X174294476Y-101699999D01*
X174286659Y-101743330D01*
X174273909Y-101777515D01*
X174267500Y-101837130D01*
X174267500Y-102832869D01*
X174273909Y-102892485D01*
X174286658Y-102926667D01*
X174294476Y-102969999D01*
X174286659Y-103013330D01*
X174273909Y-103047515D01*
X174267500Y-103107130D01*
X174267500Y-104102869D01*
X174273909Y-104162485D01*
X174286658Y-104196666D01*
X174294476Y-104239997D01*
X174286659Y-104283328D01*
X174273909Y-104317513D01*
X174267500Y-104377130D01*
X174267500Y-105372869D01*
X174273909Y-105432485D01*
X174286658Y-105466667D01*
X174294476Y-105509999D01*
X174286659Y-105553330D01*
X174273909Y-105587515D01*
X174267500Y-105647130D01*
X174267500Y-106642869D01*
X174273909Y-106702485D01*
X174286658Y-106736667D01*
X174294476Y-106779999D01*
X174286659Y-106823330D01*
X174273909Y-106857515D01*
X174267500Y-106917130D01*
X174267500Y-107912869D01*
X174273909Y-107972485D01*
X174286658Y-108006667D01*
X174294476Y-108049999D01*
X174286659Y-108093330D01*
X174273909Y-108127515D01*
X174267500Y-108187130D01*
X174267500Y-109182869D01*
X174273909Y-109242485D01*
X174286658Y-109276666D01*
X174294476Y-109319997D01*
X174286659Y-109363328D01*
X174273909Y-109397513D01*
X174267500Y-109457130D01*
X174267500Y-110452869D01*
X174273909Y-110512485D01*
X174286658Y-110546667D01*
X174294476Y-110589999D01*
X174286659Y-110633330D01*
X174273909Y-110667515D01*
X174267500Y-110727130D01*
X174267500Y-111722869D01*
X174273909Y-111782485D01*
X174286658Y-111816667D01*
X174294476Y-111859999D01*
X174286659Y-111903330D01*
X174273909Y-111937515D01*
X174267500Y-111997130D01*
X174267500Y-112992869D01*
X174273909Y-113052485D01*
X174286658Y-113086666D01*
X174294476Y-113129997D01*
X174286659Y-113173328D01*
X174273909Y-113207513D01*
X174267500Y-113267130D01*
X174267500Y-114262869D01*
X174273909Y-114322485D01*
X174286658Y-114356666D01*
X174294476Y-114399997D01*
X174286659Y-114443328D01*
X174273909Y-114477513D01*
X174273909Y-114477516D01*
X174273909Y-114477517D01*
X174268290Y-114529784D01*
X174267500Y-114537131D01*
X174267500Y-115425500D01*
X174250887Y-115487500D01*
X174205500Y-115532887D01*
X174143500Y-115549500D01*
X173770130Y-115549500D01*
X173710516Y-115555909D01*
X173676331Y-115568659D01*
X173633000Y-115576476D01*
X173589668Y-115568658D01*
X173555486Y-115555909D01*
X173529935Y-115553162D01*
X173495873Y-115549500D01*
X173495869Y-115549500D01*
X172500130Y-115549500D01*
X172440516Y-115555909D01*
X172406331Y-115568659D01*
X172363000Y-115576476D01*
X172319668Y-115568658D01*
X172285486Y-115555909D01*
X172259935Y-115553162D01*
X172225873Y-115549500D01*
X172225869Y-115549500D01*
X171230130Y-115549500D01*
X171170516Y-115555909D01*
X171136331Y-115568659D01*
X171093000Y-115576476D01*
X171049668Y-115568658D01*
X171015486Y-115555909D01*
X170989935Y-115553162D01*
X170955873Y-115549500D01*
X170955869Y-115549500D01*
X169960130Y-115549500D01*
X169900516Y-115555909D01*
X169866331Y-115568659D01*
X169823000Y-115576476D01*
X169779668Y-115568658D01*
X169745486Y-115555909D01*
X169719935Y-115553162D01*
X169685873Y-115549500D01*
X169685869Y-115549500D01*
X168690130Y-115549500D01*
X168630516Y-115555909D01*
X168596331Y-115568659D01*
X168553000Y-115576476D01*
X168509668Y-115568658D01*
X168475486Y-115555909D01*
X168449935Y-115553162D01*
X168415873Y-115549500D01*
X168415869Y-115549500D01*
X167420130Y-115549500D01*
X167360516Y-115555909D01*
X167326331Y-115568659D01*
X167283000Y-115576476D01*
X167239668Y-115568658D01*
X167205486Y-115555909D01*
X167179935Y-115553162D01*
X167145873Y-115549500D01*
X167145869Y-115549500D01*
X166150130Y-115549500D01*
X166090516Y-115555909D01*
X166056331Y-115568659D01*
X166013000Y-115576476D01*
X165969668Y-115568658D01*
X165935486Y-115555909D01*
X165909935Y-115553162D01*
X165875873Y-115549500D01*
X165875869Y-115549500D01*
X164880130Y-115549500D01*
X164820516Y-115555909D01*
X164786331Y-115568659D01*
X164743000Y-115576476D01*
X164699668Y-115568658D01*
X164665486Y-115555909D01*
X164639935Y-115553162D01*
X164605873Y-115549500D01*
X164605869Y-115549500D01*
X163773114Y-115549500D01*
X163716819Y-115535985D01*
X163672796Y-115498385D01*
X163650641Y-115444898D01*
X163655182Y-115387185D01*
X163699674Y-115250256D01*
X163719460Y-115062000D01*
X163699674Y-114873744D01*
X163641179Y-114693716D01*
X163641179Y-114693715D01*
X163546533Y-114529783D01*
X163419870Y-114389110D01*
X163266730Y-114277848D01*
X163093802Y-114200855D01*
X162908648Y-114161500D01*
X162908646Y-114161500D01*
X162719354Y-114161500D01*
X162719352Y-114161500D01*
X162534197Y-114200855D01*
X162361269Y-114277848D01*
X162208129Y-114389110D01*
X162081466Y-114529783D01*
X161986820Y-114693715D01*
X161928326Y-114873742D01*
X161908540Y-115062000D01*
X161928326Y-115250257D01*
X161972816Y-115387182D01*
X161977358Y-115444898D01*
X161955203Y-115498385D01*
X161911180Y-115535985D01*
X161854885Y-115549500D01*
X161070130Y-115549500D01*
X161062777Y-115550291D01*
X161060752Y-115550508D01*
X160993318Y-115538755D01*
X160942394Y-115493012D01*
X160923500Y-115427219D01*
X160923500Y-111416032D01*
X160931736Y-111371594D01*
X160955351Y-111333059D01*
X161006533Y-111276216D01*
X161101179Y-111112284D01*
X161101179Y-111112283D01*
X161159674Y-110932256D01*
X161179460Y-110744000D01*
X161159674Y-110555744D01*
X161101179Y-110375716D01*
X161101179Y-110375715D01*
X161006533Y-110211783D01*
X160879870Y-110071110D01*
X160726730Y-109959848D01*
X160553803Y-109882855D01*
X160463334Y-109863626D01*
X160404944Y-109833392D01*
X160384179Y-109800000D01*
X163028000Y-109800000D01*
X163028000Y-111547824D01*
X163034402Y-111607375D01*
X163084647Y-111742089D01*
X163170811Y-111857188D01*
X163285910Y-111943352D01*
X163420624Y-111993597D01*
X163480176Y-112000000D01*
X165228000Y-112000000D01*
X165728000Y-112000000D01*
X167475824Y-112000000D01*
X167535375Y-111993597D01*
X167670089Y-111943352D01*
X167785188Y-111857188D01*
X167871352Y-111742089D01*
X167921597Y-111607375D01*
X167928000Y-111547824D01*
X167928000Y-109800000D01*
X166781553Y-109800000D01*
X166878000Y-109896446D01*
X166878000Y-109896447D01*
X167143872Y-110162319D01*
X167175966Y-110217906D01*
X167175966Y-110282094D01*
X167143872Y-110337681D01*
X166265681Y-111215872D01*
X166210094Y-111247966D01*
X166145906Y-111247966D01*
X166090319Y-111215872D01*
X165895193Y-111020746D01*
X165728000Y-110853552D01*
X165728000Y-112000000D01*
X165228000Y-112000000D01*
X165228000Y-110853553D01*
X165227999Y-110853552D01*
X165060807Y-111020746D01*
X164865681Y-111215872D01*
X164810094Y-111247966D01*
X164745906Y-111247966D01*
X164690319Y-111215872D01*
X163812128Y-110337681D01*
X163780034Y-110282094D01*
X163780034Y-110250000D01*
X164431553Y-110250000D01*
X164778000Y-110596447D01*
X165124447Y-110250000D01*
X165831553Y-110250000D01*
X166178000Y-110596447D01*
X166524447Y-110250000D01*
X166178000Y-109903553D01*
X165831553Y-110250000D01*
X165124447Y-110250000D01*
X164778000Y-109903553D01*
X164431553Y-110250000D01*
X163780034Y-110250000D01*
X163780034Y-110217906D01*
X163812128Y-110162319D01*
X164078000Y-109896447D01*
X164078000Y-109896446D01*
X164174447Y-109800000D01*
X163028000Y-109800000D01*
X160384179Y-109800000D01*
X160370221Y-109777554D01*
X160368930Y-109711813D01*
X160401432Y-109654657D01*
X160756089Y-109300000D01*
X163028000Y-109300000D01*
X164174447Y-109300000D01*
X164174447Y-109299999D01*
X163812128Y-108937680D01*
X163780034Y-108882092D01*
X163780034Y-108850000D01*
X164431553Y-108850000D01*
X164778000Y-109196447D01*
X165124447Y-108850000D01*
X165831553Y-108850000D01*
X166178000Y-109196447D01*
X166524447Y-108850000D01*
X166178000Y-108503553D01*
X165831553Y-108850000D01*
X165124447Y-108850000D01*
X164778000Y-108503553D01*
X164431553Y-108850000D01*
X163780034Y-108850000D01*
X163780034Y-108817905D01*
X163812128Y-108762318D01*
X164078000Y-108496447D01*
X164690319Y-107884128D01*
X164745906Y-107852034D01*
X164810094Y-107852034D01*
X164865681Y-107884128D01*
X165060807Y-108079254D01*
X165227999Y-108246447D01*
X165228000Y-108246447D01*
X165228000Y-107100000D01*
X165728000Y-107100000D01*
X165728000Y-108246447D01*
X166090319Y-107884128D01*
X166145906Y-107852034D01*
X166210094Y-107852034D01*
X166265681Y-107884128D01*
X167143871Y-108762318D01*
X167175965Y-108817905D01*
X167175965Y-108882092D01*
X167143871Y-108937680D01*
X166781552Y-109299999D01*
X166781553Y-109300000D01*
X167928000Y-109300000D01*
X167928000Y-107552176D01*
X167921597Y-107492624D01*
X167871352Y-107357910D01*
X167785188Y-107242811D01*
X167670089Y-107156647D01*
X167535375Y-107106402D01*
X167475824Y-107100000D01*
X165728000Y-107100000D01*
X165228000Y-107100000D01*
X163480176Y-107100000D01*
X163420624Y-107106402D01*
X163285910Y-107156647D01*
X163170811Y-107242811D01*
X163084647Y-107357910D01*
X163034402Y-107492624D01*
X163028000Y-107552176D01*
X163028000Y-109300000D01*
X160756089Y-109300000D01*
X167773271Y-102282819D01*
X167813500Y-102255939D01*
X167860953Y-102246500D01*
X167920148Y-102246500D01*
X168043584Y-102220262D01*
X168105303Y-102207144D01*
X168278230Y-102130151D01*
X168431371Y-102018888D01*
X168558033Y-101878216D01*
X168652679Y-101714284D01*
X168711174Y-101534256D01*
X168730960Y-101346000D01*
X168711174Y-101157744D01*
X168652679Y-100977716D01*
X168652679Y-100977715D01*
X168558033Y-100813783D01*
X168494260Y-100742956D01*
X168464903Y-100684724D01*
X168469154Y-100619649D01*
X168505836Y-100565730D01*
X168564805Y-100537881D01*
X168615027Y-100542461D01*
X168615031Y-100542426D01*
X168617219Y-100542661D01*
X168629747Y-100543803D01*
X168630517Y-100544091D01*
X168690127Y-100550500D01*
X169685872Y-100550499D01*
X169745483Y-100544091D01*
X169779665Y-100531341D01*
X169822999Y-100523523D01*
X169866332Y-100531340D01*
X169900517Y-100544091D01*
X169960127Y-100550500D01*
X170955872Y-100550499D01*
X171015483Y-100544091D01*
X171049665Y-100531341D01*
X171092999Y-100523523D01*
X171136332Y-100531340D01*
X171170517Y-100544091D01*
X171230127Y-100550500D01*
X172225872Y-100550499D01*
X172285483Y-100544091D01*
X172319665Y-100531341D01*
X172362999Y-100523523D01*
X172406332Y-100531340D01*
X172440517Y-100544091D01*
X172500127Y-100550500D01*
X173495872Y-100550499D01*
X173555483Y-100544091D01*
X173589665Y-100531341D01*
X173632999Y-100523523D01*
X173676332Y-100531340D01*
G37*
%TD.AperFunction*%
%TA.AperFunction,Conductor*%
G36*
X171441001Y-93598939D02*
G01*
X171481229Y-93625819D01*
X172265534Y-94410124D01*
X172296747Y-94462587D01*
X172299144Y-94523585D01*
X172272144Y-94578335D01*
X172222589Y-94636356D01*
X172086846Y-94857872D01*
X171987426Y-95097889D01*
X171926779Y-95350504D01*
X171906396Y-95609499D01*
X171926779Y-95868495D01*
X171987426Y-96121110D01*
X172023204Y-96207483D01*
X172086846Y-96361128D01*
X172221360Y-96580636D01*
X172222590Y-96582643D01*
X172249384Y-96614014D01*
X172391311Y-96780189D01*
X172428768Y-96812180D01*
X172588384Y-96948506D01*
X172588860Y-96948912D01*
X172810372Y-97084654D01*
X172990385Y-97159218D01*
X173050389Y-97184073D01*
X173130197Y-97203233D01*
X173303006Y-97244721D01*
X173562000Y-97265104D01*
X173820994Y-97244721D01*
X174073610Y-97184073D01*
X174313628Y-97084654D01*
X174535140Y-96948912D01*
X174732689Y-96780189D01*
X174849211Y-96643759D01*
X174897853Y-96609000D01*
X174957107Y-96601041D01*
X175013198Y-96621734D01*
X175053087Y-96666269D01*
X175067500Y-96724292D01*
X175067500Y-97967582D01*
X175053376Y-98025057D01*
X175014220Y-98069438D01*
X174958954Y-98090615D01*
X174900167Y-98083764D01*
X174825485Y-98055909D01*
X174805613Y-98053772D01*
X174765873Y-98049500D01*
X174765869Y-98049500D01*
X173770130Y-98049500D01*
X173710516Y-98055909D01*
X173676331Y-98068659D01*
X173633000Y-98076476D01*
X173589668Y-98068658D01*
X173555486Y-98055909D01*
X173529935Y-98053162D01*
X173495873Y-98049500D01*
X173495869Y-98049500D01*
X172500130Y-98049500D01*
X172440516Y-98055909D01*
X172406331Y-98068659D01*
X172363000Y-98076476D01*
X172319668Y-98068658D01*
X172285486Y-98055909D01*
X172259935Y-98053162D01*
X172225873Y-98049500D01*
X172225869Y-98049500D01*
X171230130Y-98049500D01*
X171170516Y-98055909D01*
X171136331Y-98068659D01*
X171093000Y-98076476D01*
X171049668Y-98068658D01*
X171015486Y-98055909D01*
X170989935Y-98053162D01*
X170955873Y-98049500D01*
X170955869Y-98049500D01*
X169960130Y-98049500D01*
X169900516Y-98055909D01*
X169866331Y-98068659D01*
X169823000Y-98076476D01*
X169779668Y-98068658D01*
X169745486Y-98055909D01*
X169719935Y-98053162D01*
X169685873Y-98049500D01*
X169685869Y-98049500D01*
X168690130Y-98049500D01*
X168630516Y-98055909D01*
X168596331Y-98068659D01*
X168553000Y-98076476D01*
X168509668Y-98068658D01*
X168475486Y-98055909D01*
X168449935Y-98053162D01*
X168415873Y-98049500D01*
X168415869Y-98049500D01*
X167420130Y-98049500D01*
X167360516Y-98055909D01*
X167326331Y-98068659D01*
X167283000Y-98076476D01*
X167239668Y-98068658D01*
X167205486Y-98055909D01*
X167179935Y-98053162D01*
X167145873Y-98049500D01*
X167145869Y-98049500D01*
X166150130Y-98049500D01*
X166090516Y-98055909D01*
X166056331Y-98068659D01*
X166013000Y-98076476D01*
X165969668Y-98068658D01*
X165935486Y-98055909D01*
X165909935Y-98053162D01*
X165875873Y-98049500D01*
X165875869Y-98049500D01*
X165499422Y-98049500D01*
X165439685Y-98034162D01*
X165394725Y-97991943D01*
X165375667Y-97933286D01*
X165387223Y-97872704D01*
X165426533Y-97825184D01*
X165449074Y-97808807D01*
X165458830Y-97802400D01*
X165496418Y-97780171D01*
X165496417Y-97780171D01*
X165496420Y-97780170D01*
X165510585Y-97766004D01*
X165525373Y-97753373D01*
X165541587Y-97741594D01*
X165569438Y-97707926D01*
X165577279Y-97699309D01*
X166686353Y-96590235D01*
X166741939Y-96558143D01*
X166806126Y-96558143D01*
X166906592Y-96585063D01*
X167142000Y-96605659D01*
X167377408Y-96585063D01*
X167605663Y-96523903D01*
X167819830Y-96424035D01*
X168013401Y-96288495D01*
X168180495Y-96121401D01*
X168310732Y-95935402D01*
X168355048Y-95896539D01*
X168412305Y-95882528D01*
X168469562Y-95896539D01*
X168513880Y-95935404D01*
X168643893Y-96121081D01*
X168810918Y-96288106D01*
X169004423Y-96423600D01*
X169218507Y-96523430D01*
X169431999Y-96580635D01*
X169432000Y-96580636D01*
X169432000Y-95500000D01*
X169932000Y-95500000D01*
X169932000Y-96580635D01*
X170145492Y-96523430D01*
X170359576Y-96423600D01*
X170553081Y-96288106D01*
X170720106Y-96121081D01*
X170855600Y-95927576D01*
X170955430Y-95713492D01*
X171012636Y-95500000D01*
X169932000Y-95500000D01*
X169432000Y-95500000D01*
X169432000Y-93919364D01*
X169932000Y-93919364D01*
X169932000Y-95000000D01*
X171012636Y-95000000D01*
X171012635Y-94999999D01*
X170955430Y-94786507D01*
X170855599Y-94572421D01*
X170720109Y-94378921D01*
X170553081Y-94211893D01*
X170359576Y-94076399D01*
X170145492Y-93976569D01*
X169932000Y-93919364D01*
X169432000Y-93919364D01*
X169431999Y-93919364D01*
X169218507Y-93976569D01*
X169004421Y-94076400D01*
X168810921Y-94211890D01*
X168643893Y-94378918D01*
X168513880Y-94564596D01*
X168469562Y-94603461D01*
X168412305Y-94617472D01*
X168355048Y-94603461D01*
X168310730Y-94564595D01*
X168239304Y-94462587D01*
X168180495Y-94378599D01*
X168013401Y-94211505D01*
X167819830Y-94075965D01*
X167605663Y-93976097D01*
X167541456Y-93958893D01*
X167377407Y-93914936D01*
X167142000Y-93894340D01*
X166906592Y-93914936D01*
X166678336Y-93976097D01*
X166464170Y-94075965D01*
X166270598Y-94211505D01*
X166103505Y-94378598D01*
X165973575Y-94564159D01*
X165929257Y-94603025D01*
X165872000Y-94617036D01*
X165814743Y-94603025D01*
X165770425Y-94564159D01*
X165640494Y-94378598D01*
X165473404Y-94211508D01*
X165473401Y-94211505D01*
X165279830Y-94075965D01*
X165065663Y-93976097D01*
X165001456Y-93958893D01*
X164837407Y-93914936D01*
X164602000Y-93894340D01*
X164366592Y-93914936D01*
X164138336Y-93976097D01*
X163924170Y-94075965D01*
X163730601Y-94211503D01*
X163608673Y-94333431D01*
X163555926Y-94364726D01*
X163494634Y-94366915D01*
X163439789Y-94339462D01*
X163404810Y-94289082D01*
X163376019Y-94211890D01*
X163355796Y-94157669D01*
X163269546Y-94042454D01*
X163154331Y-93956204D01*
X163019483Y-93905909D01*
X162959873Y-93899500D01*
X162959869Y-93899500D01*
X162811500Y-93899500D01*
X162749500Y-93882887D01*
X162704113Y-93837500D01*
X162687500Y-93775500D01*
X162687500Y-93713500D01*
X162704113Y-93651500D01*
X162749500Y-93606113D01*
X162811500Y-93589500D01*
X171393548Y-93589500D01*
X171441001Y-93598939D01*
G37*
%TD.AperFunction*%
%TD*%
M02*
