%TF.GenerationSoftware,KiCad,Pcbnew,7.0.1*%
%TF.CreationDate,2023-04-13T16:06:33-04:00*%
%TF.ProjectId,IoT Lightswitch,496f5420-4c69-4676-9874-737769746368,rev?*%
%TF.SameCoordinates,Original*%
%TF.FileFunction,Soldermask,Top*%
%TF.FilePolarity,Negative*%
%FSLAX46Y46*%
G04 Gerber Fmt 4.6, Leading zero omitted, Abs format (unit mm)*
G04 Created by KiCad (PCBNEW 7.0.1) date 2023-04-13 16:06:33*
%MOMM*%
%LPD*%
G01*
G04 APERTURE LIST*
G04 Aperture macros list*
%AMRoundRect*
0 Rectangle with rounded corners*
0 $1 Rounding radius*
0 $2 $3 $4 $5 $6 $7 $8 $9 X,Y pos of 4 corners*
0 Add a 4 corners polygon primitive as box body*
4,1,4,$2,$3,$4,$5,$6,$7,$8,$9,$2,$3,0*
0 Add four circle primitives for the rounded corners*
1,1,$1+$1,$2,$3*
1,1,$1+$1,$4,$5*
1,1,$1+$1,$6,$7*
1,1,$1+$1,$8,$9*
0 Add four rect primitives between the rounded corners*
20,1,$1+$1,$2,$3,$4,$5,0*
20,1,$1+$1,$4,$5,$6,$7,0*
20,1,$1+$1,$6,$7,$8,$9,0*
20,1,$1+$1,$8,$9,$2,$3,0*%
G04 Aperture macros list end*
%ADD10R,1.800000X1.100000*%
%ADD11C,3.000000*%
%ADD12RoundRect,0.350000X-0.900000X0.350000X-0.900000X-0.350000X0.900000X-0.350000X0.900000X0.350000X0*%
%ADD13RoundRect,0.350000X-0.350000X-0.900000X0.350000X-0.900000X0.350000X0.900000X-0.350000X0.900000X0*%
%ADD14RoundRect,0.135000X-0.185000X0.135000X-0.185000X-0.135000X0.185000X-0.135000X0.185000X0.135000X0*%
%ADD15RoundRect,0.112500X-0.112500X0.187500X-0.112500X-0.187500X0.112500X-0.187500X0.112500X0.187500X0*%
%ADD16RoundRect,0.147500X-0.147500X-0.172500X0.147500X-0.172500X0.147500X0.172500X-0.147500X0.172500X0*%
%ADD17R,1.700000X1.700000*%
%ADD18O,1.700000X1.700000*%
%ADD19RoundRect,0.135000X0.135000X0.185000X-0.135000X0.185000X-0.135000X-0.185000X0.135000X-0.185000X0*%
%ADD20RoundRect,0.140000X0.140000X0.170000X-0.140000X0.170000X-0.140000X-0.170000X0.140000X-0.170000X0*%
%ADD21R,0.700000X0.450000*%
%ADD22R,0.900000X1.500000*%
%ADD23R,1.500000X0.900000*%
%ADD24C,0.600000*%
%ADD25R,3.900000X3.900000*%
%ADD26RoundRect,0.225000X-0.250000X0.225000X-0.250000X-0.225000X0.250000X-0.225000X0.250000X0.225000X0*%
%ADD27C,2.500000*%
%ADD28C,1.800000*%
%ADD29R,2.000000X2.300000*%
%ADD30C,2.300000*%
%ADD31C,2.000000*%
G04 APERTURE END LIST*
D10*
%TO.C,BOOT*%
X169493000Y-87939000D03*
X175693000Y-87939000D03*
X169493000Y-91639000D03*
X175693000Y-91639000D03*
%TD*%
D11*
%TO.C,J1*%
X157574000Y-60960000D03*
X152574000Y-60960000D03*
X147574000Y-60960000D03*
X142574000Y-60960000D03*
%TD*%
D12*
%TO.C,F1*%
X147574000Y-70294000D03*
X147574000Y-74994000D03*
%TD*%
D10*
%TO.C,RST*%
X167057000Y-91639000D03*
X160857000Y-91639000D03*
X167057000Y-87939000D03*
X160857000Y-87939000D03*
%TD*%
D13*
%TO.C,F3*%
X156527000Y-53848000D03*
X161227000Y-53848000D03*
%TD*%
D14*
%TO.C,R2*%
X155194000Y-93470000D03*
X155194000Y-94490000D03*
%TD*%
D15*
%TO.C,D1*%
X153543000Y-86326000D03*
X153543000Y-88426000D03*
%TD*%
D16*
%TO.C,D2*%
X175283000Y-119507000D03*
X176253000Y-119507000D03*
%TD*%
D17*
%TO.C,SW5*%
X169799000Y-119888000D03*
D18*
X172339000Y-119888000D03*
%TD*%
D17*
%TO.C,V  T  R  G*%
X162062000Y-95250000D03*
D18*
X164602000Y-95250000D03*
X167142000Y-95250000D03*
X169682000Y-95250000D03*
%TD*%
D19*
%TO.C,R4*%
X176278000Y-118491000D03*
X175258000Y-118491000D03*
%TD*%
D20*
%TO.C,C1*%
X160246000Y-119380000D03*
X159286000Y-119380000D03*
%TD*%
D19*
%TO.C,R3*%
X166499000Y-118364000D03*
X165479000Y-118364000D03*
%TD*%
D21*
%TO.C,Q1*%
X155210000Y-90028000D03*
X155210000Y-91328000D03*
X157210000Y-90678000D03*
%TD*%
D22*
%TO.C,U1*%
X157758000Y-116800000D03*
X159028000Y-116800000D03*
X160298000Y-116800000D03*
X161568000Y-116800000D03*
X162838000Y-116800000D03*
X164108000Y-116800000D03*
X165378000Y-116800000D03*
X166648000Y-116800000D03*
X167918000Y-116800000D03*
X169188000Y-116800000D03*
X170458000Y-116800000D03*
X171728000Y-116800000D03*
X172998000Y-116800000D03*
X174268000Y-116800000D03*
D23*
X175518000Y-115035000D03*
X175518000Y-113765000D03*
X175518000Y-112495000D03*
X175518000Y-111225000D03*
X175518000Y-109955000D03*
X175518000Y-108685000D03*
X175518000Y-107415000D03*
X175518000Y-106145000D03*
X175518000Y-104875000D03*
X175518000Y-103605000D03*
X175518000Y-102335000D03*
X175518000Y-101065000D03*
D22*
X174268000Y-99300000D03*
X172998000Y-99300000D03*
X171728000Y-99300000D03*
X170458000Y-99300000D03*
X169188000Y-99300000D03*
X167918000Y-99300000D03*
X166648000Y-99300000D03*
X165378000Y-99300000D03*
X164108000Y-99300000D03*
X162838000Y-99300000D03*
X161568000Y-99300000D03*
X160298000Y-99300000D03*
X159028000Y-99300000D03*
X157758000Y-99300000D03*
D24*
X164778000Y-110950000D03*
X166178000Y-110950000D03*
X164078000Y-110250000D03*
X165478000Y-110250000D03*
X166878000Y-110250000D03*
X164778000Y-109550000D03*
D25*
X165478000Y-109550000D03*
D24*
X166178000Y-109550000D03*
X164078000Y-108850000D03*
X165478000Y-108850000D03*
X166878000Y-108850000D03*
X164778000Y-108150000D03*
X166178000Y-108150000D03*
%TD*%
D19*
%TO.C,R1*%
X160276000Y-118364000D03*
X159256000Y-118364000D03*
%TD*%
D26*
%TO.C,C3*%
X157988000Y-119113000D03*
X157988000Y-120663000D03*
%TD*%
D11*
%TO.C,K1*%
X147574000Y-82160000D03*
D27*
X153524000Y-80210000D03*
D11*
X141524000Y-68010000D03*
X153574000Y-67960000D03*
D27*
X141524000Y-80210000D03*
%TD*%
D28*
%TO.C,RV1*%
X166116000Y-61722000D03*
X173616000Y-58822000D03*
%TD*%
D29*
%TO.C,PS1*%
X163362000Y-66209500D03*
D30*
X168362000Y-66209500D03*
X158162000Y-95609500D03*
X173562000Y-95609500D03*
%TD*%
D31*
%TO.C,C2*%
X164418000Y-54102000D03*
X174418000Y-54102000D03*
%TD*%
M02*
